<svg xmlns="http://www.w3.org/2000/svg" viewBox="0 0 178.479 57.244"><path d="M37.135 19.56 17.575 0h22.514l16.606 16.606v17.08l-19.56 3.45zM19.56 37.135l19.56 19.56H16.606L-.001 40.09V23.009l19.56-3.45zM80.112 56.692h7.823V23.32h12.225V16.6H67.878v6.72h12.234zM130.042 41.556c0 1.95-.299 3.603-.882 4.963a6.5 6.5 0 0 1-1.098 1.76q-.661.746-1.56 1.241-.9.496-2.103.75-1.205.254-2.72.254-2.133-.002-3.706-.54c-1.049-.357-1.912-.886-2.606-1.589a6 6 0 0 1-.91-1.205q-.59-1.022-.892-2.415-.301-1.395-.302-3.164v-25.01h-7.768v25.727q-.001 3.338 1.016 6.047a13.4 13.4 0 0 0 3.059 4.765c1.364 1.374 3.046 2.403 5.031 3.085s4.272 1.018 6.858 1.018q2.734 0 5.01-.483 2.278-.484 4.094-1.462a13.8 13.8 0 0 0 3.162-2.307 12.3 12.3 0 0 0 2.25-3.024 15 15 0 0 0 1.335-3.565q.444-1.884.444-3.964V16.601h-7.712zM177.884 30.247q-.595-2.672-1.794-4.832a15.9 15.9 0 0 0-2.92-3.8 16.3 16.3 0 0 0-3.96-2.77q-2.236-1.124-4.891-1.685t-5.72-.56h-13.096v40.092h12.048q3.23 0 6.021-.573t5.139-1.725a16.5 16.5 0 0 0 4.163-2.889 16.6 16.6 0 0 0 3.079-4.043q1.267-2.31 1.897-5.154t.629-6.213q0-3.178-.595-5.848m-24.503-7.037h4.776q2.01 0 3.684.358 1.674.357 3.02 1.063a9 9 0 0 1 2.355 1.771 9.8 9.8 0 0 1 1.71 2.51q.694 1.44 1.047 3.29.352 1.852.352 4.113-.002 3.49-.818 6.065c-.543 1.718-1.35 3.13-2.421 4.255-1.072 1.124-2.418 1.968-4.06 2.537-1.64.567-3.575.856-5.806.856h-3.84z" class="cls-1"/></svg>