<svg xmlns="http://www.w3.org/2000/svg" viewBox="0 0 184.318 61.39"><path d="M37.135 19.563 17.575.003h22.514l16.606 16.606v17.08l-19.56 3.45zM19.56 37.138l19.56 19.56H16.606L-.001 40.092v-17.08l19.56-3.45zM79.314 7.684q0 2.365-.88 3.969a5.64 5.64 0 0 1-2.512 2.404q-1.633.802-3.9.802h-4.145V.899h4.516q2.15 0 3.705.783a5.5 5.5 0 0 1 2.385 2.277q.83 1.496.83 3.725zm-2.64.078q0-1.623-.508-2.679-.509-1.054-1.496-1.573t-2.434-.518h-1.818v9.755h1.486q2.405 0 3.587-1.24 1.184-1.243 1.183-3.745M87.054 4.067q.292 0 .635.029t.556.089l-.254 2.307a15 15 0 0 0-.537-.079 5 5 0 0 0-.654-.039q-.51 0-.998.176a2.7 2.7 0 0 0-.899.547q-.41.372-.646.929-.234.558-.234 1.34v5.493H81.54V4.263h1.916l.352 1.837h.117q.313-.567.783-1.036a3.5 3.5 0 0 1 1.065-.733 3.1 3.1 0 0 1 1.28-.264M93.884 4.067q1.428 0 2.464.567 1.035.567 1.594 1.643.555 1.075.556 2.6v1.27h-6.98q.041 1.428.802 2.21.764.78 2.17.781a7.6 7.6 0 0 0 1.8-.195 10 10 0 0 0 1.642-.567v1.954a7.2 7.2 0 0 1-1.623.548q-.841.176-2.033.176-1.545 0-2.748-.596a4.3 4.3 0 0 1-1.876-1.808q-.675-1.213-.674-3.01 0-1.819.616-3.06.615-1.243 1.72-1.877 1.104-.636 2.57-.636m.04 1.838q-1.017 0-1.633.645-.615.645-.713 1.857h4.516q0-.742-.235-1.3a1.94 1.94 0 0 0-.713-.88q-.48-.322-1.222-.322M108.208 11.809q0 1.017-.49 1.74-.488.724-1.446 1.114t-2.385.391q-1.114 0-1.955-.156a6.6 6.6 0 0 1-1.564-.488v-2.113a9.6 9.6 0 0 0 1.73.616 7 7 0 0 0 1.75.245q1.056 0 1.525-.313.47-.312.469-.84a.95.95 0 0 0-.205-.596q-.206-.265-.743-.539a20 20 0 0 0-1.515-.665 12 12 0 0 1-1.652-.79q-.675-.401-1.027-.978-.351-.576-.351-1.438 0-1.425 1.133-2.18 1.134-.751 2.992-.752.997 0 1.867.196.87.195 1.71.586l-.742 1.76q-.724-.312-1.487-.519a5.5 5.5 0 0 0-1.407-.205q-.822 0-1.26.254-.441.255-.441.704 0 .352.215.597.214.244.763.498.546.254 1.525.626.957.37 1.632.782.675.41 1.016.987.343.576.343 1.476M113.9 15.054q-1.837 0-2.981-1.388t-1.144-4.086q0-2.737 1.154-4.125t3.03-1.388q.783 0 1.358.206.578.205 1.007.556.43.353.724.783h.097a23 23 0 0 1-.087-.89 13 13 0 0 1-.05-1.026V0h2.504v14.859h-1.936l-.47-1.388h-.097q-.293.43-.714.791-.42.363-1.017.577-.595.215-1.378.215m.744-2.014q1.367.001 1.935-.772.567-.772.567-2.356V9.6q0-1.701-.538-2.61-.538-.91-1.984-.91-1.114 0-1.71.929-.597.93-.598 2.61 0 1.683.597 2.551.597.87 1.73.87M138.769 4.066q1.798 0 2.796.919.996.92.997 2.971v6.902h-2.464V8.465q0-1.212-.479-1.808-.48-.597-1.476-.597-1.485 0-2.034.938-.546.94-.546 2.699v5.16h-2.484V4.263h1.916l.353 1.427h.117a3.3 3.3 0 0 1 .86-.91q.509-.361 1.124-.536.615-.178 1.32-.177zM126.44 4.067q1.426 0 2.462.567t1.594 1.643.557 2.6v1.27h-6.98q.04 1.428.802 2.21.762.78 2.17.781a7.6 7.6 0 0 0 1.799-.195 10 10 0 0 0 1.642-.567v1.954a7.2 7.2 0 0 1-1.623.548q-.84.176-2.033.176-1.544 0-2.747-.596a4.3 4.3 0 0 1-1.876-1.808q-.675-1.213-.675-3.01 0-1.819.616-3.06.615-1.243 1.72-1.877 1.105-.636 2.571-.636m.039 1.838q-1.017 0-1.633.645t-.713 1.857h4.515q0-.742-.234-1.3a1.94 1.94 0 0 0-.714-.88q-.48-.322-1.221-.322M87.217 24.99q1.798 0 2.796.919.997.92.997 2.971v6.902h-2.464v-6.393q0-1.213-.479-1.809t-1.476-.596q-1.485 0-2.033.938-.547.94-.547 2.698v5.162h-2.484V25.186h1.916l.353 1.427h.117a3.3 3.3 0 0 1 .86-.91q.509-.36 1.124-.537t1.32-.176M94.753 21.08q.547 0 .958.293.41.294.41 1.017 0 .704-.41 1.007a1.57 1.57 0 0 1-.958.302q-.587 0-.987-.302-.402-.303-.402-1.007 0-.723.402-1.017.399-.293.987-.293m1.212 4.106v10.596h-2.484V25.186ZM139.699 21.08q.547 0 .958.293.41.294.41 1.017 0 .704-.41 1.007a1.57 1.57 0 0 1-.958.302q-.586 0-.987-.302-.401-.303-.401-1.007 0-.723.401-1.017.4-.293.987-.293m1.212 4.106v10.596h-2.483V25.186ZM148.218 34.002q.468 0 .898-.088.431-.087.802-.205v1.838q-.39.175-1.017.303a6.6 6.6 0 0 1-1.31.127q-.899 0-1.632-.303-.732-.302-1.173-1.046-.44-.742-.44-2.072v-5.514h-1.427v-1.075l1.564-.86.783-2.248h1.543v2.327h3.011v1.856h-3.01v5.494q0 .743.391 1.105.39.361 1.017.361M101.501 35.782l-4.027-10.596h2.62l2.072 6.256q.117.273.234.674.118.4.225.782t.127.675h.078q.04-.294.147-.675.108-.38.245-.773.135-.39.215-.683l2.11-6.256h2.621l-4.047 10.596zM113.784 24.99q1.426 0 2.462.567t1.594 1.643q.556 1.074.556 2.6v1.27h-6.979q.04 1.428.802 2.21.762.78 2.17.78a7.6 7.6 0 0 0 1.798-.194 10 10 0 0 0 1.643-.567v1.954a7.2 7.2 0 0 1-1.623.548q-.84.176-2.033.176-1.544 0-2.747-.596a4.3 4.3 0 0 1-1.876-1.808q-.675-1.213-.675-3.011 0-1.817.616-3.06.615-1.242 1.72-1.877 1.105-.636 2.571-.635m.038 1.838q-1.015 0-1.633.645-.615.645-.712 1.857h4.515q0-.742-.234-1.3a1.94 1.94 0 0 0-.714-.88q-.48-.323-1.222-.323M125.934 24.99q.293 0 .635.029.341.03.557.089l-.254 2.306a15 15 0 0 0-.538-.078 5 5 0 0 0-.654-.039q-.51 0-.997.176-.49.176-.9.547a2.6 2.6 0 0 0-.645.929q-.235.557-.235 1.34v5.493h-2.483V25.186h1.916l.352 1.837h.118a4.6 4.6 0 0 1 .782-1.036 3.5 3.5 0 0 1 1.065-.733 3.1 3.1 0 0 1 1.28-.264zM136.026 32.732q0 1.017-.489 1.74t-1.446 1.114q-.959.39-2.386.39-1.113.001-1.955-.155a6.6 6.6 0 0 1-1.563-.489V33.22a9.6 9.6 0 0 0 1.73.616 7 7 0 0 0 1.749.244q1.056 0 1.525-.312.47-.312.47-.84a.95.95 0 0 0-.206-.597q-.206-.264-.743-.538a20 20 0 0 0-1.515-.665 12 12 0 0 1-1.652-.79q-.675-.401-1.026-.978-.352-.576-.352-1.438 0-1.425 1.134-2.18 1.134-.751 2.991-.752.997 0 1.867.196.87.195 1.71.586l-.742 1.76q-.723-.312-1.486-.519a5.5 5.5 0 0 0-1.408-.205q-.82 0-1.26.254-.44.255-.44.704-.001.352.214.597.216.245.763.498.547.255 1.525.626.958.37 1.632.782.676.41 1.017.987.342.576.343 1.476zM79.054 30.855q0 1.448-.615 2.61-.616 1.164-1.868 1.838-1.251.675-3.167.674-2.717 0-4.125-1.417t-1.407-3.744v-8.993h2.502v8.739q0 1.701.782 2.492.783.792 2.326.792 1.095 0 1.77-.37.675-.373.997-1.125t.322-1.809v-8.72h2.484zM150.741 25.187h2.64l2.11 6.042q.138.37.255.752a12 12 0 0 1 .351 1.457h.078q.08-.45.265-1.046.184-.597.381-1.163l2.033-6.041h2.6l-4.418 11.749q-.43 1.114-.987 1.906a3.8 3.8 0 0 1-1.359 1.212q-.802.42-1.974.42a6.5 6.5 0 0 1-1.467-.156v-1.954q.215.037.518.078.303.038.636.039.605 0 1.026-.245.42-.244.713-.655a4 4 0 0 0 .49-.938l.351-.9zM175.703 30.467q0 1.308-.352 2.335t-1.006 1.74a4.16 4.16 0 0 1-1.604 1.076q-.949.36-2.121.36-1.095 0-2.014-.36a4.3 4.3 0 0 1-1.584-1.076q-.663-.713-1.046-1.74-.38-1.026-.38-2.336 0-1.778.616-2.991.615-1.213 1.749-1.848 1.133-.636 2.717-.635 1.485 0 2.61.635 1.125.636 1.77 1.848t.645 2.991m-7.567 0q.001 1.093.265 1.905.264.81.821 1.242.557.43 1.437.43t1.436-.43q.559-.43.812-1.242.254-.81.254-1.906 0-1.133-.264-1.916t-.811-1.202-1.447-.42q-1.31 0-1.906.928-.596.93-.597 2.61zM183.282 27.044h-2.561v8.74h-2.463v-8.74h-1.701v-1.173l1.7-.703v-.723q0-1.369.43-2.15a2.48 2.48 0 0 1 1.252-1.125q.821-.342 1.936-.342.78 0 1.407.127.626.128 1.036.284l-.626 1.838a11 11 0 0 0-.732-.187 4 4 0 0 0-.87-.088q-.705 0-1.036.45-.333.45-.333 1.251v.685h2.561zM117.658 45.9q1.798 0 2.796.919.996.92.997 2.971v6.902h-2.464v-6.393q0-1.213-.478-1.809-.48-.596-1.477-.596-1.485 0-2.033.938-.547.94-.547 2.698v5.162h-2.484V46.096h1.916l.353 1.427h.117a3.3 3.3 0 0 1 .86-.91q.508-.36 1.125-.537.615-.177 1.319-.177zM83.408 45.907q1.427 0 2.463.567 1.035.567 1.594 1.642.555 1.075.556 2.6v1.27h-6.98q.04 1.429.803 2.21.761.782 2.17.782a7.6 7.6 0 0 0 1.798-.196 10 10 0 0 0 1.643-.566v1.954a7.2 7.2 0 0 1-1.623.548q-.84.176-2.033.176-1.545 0-2.747-.596a4.3 4.3 0 0 1-1.876-1.809q-.675-1.212-.675-3.01 0-1.818.616-3.06.615-1.242 1.72-1.877 1.104-.636 2.57-.636m.039 1.837q-1.017 0-1.633.646-.615.645-.713 1.857h4.516q0-.742-.235-1.3a1.94 1.94 0 0 0-.713-.88q-.48-.323-1.222-.323M94.774 56.894q-1.486 0-2.62-.576-1.134-.577-1.769-1.78t-.635-3.079q0-1.955.684-3.177t1.857-1.799q1.174-.577 2.659-.577a7.8 7.8 0 0 1 1.681.177q.801.176 1.369.469l-.743 1.936a10 10 0 0 0-1.134-.381 4.5 4.5 0 0 0-1.193-.167q-.86 0-1.456.391t-.89 1.163-.293 1.946q0 1.114.303 1.877t.88 1.143 1.398.381q.84 0 1.555-.205a7 7 0 0 0 1.338-.538v2.072a5.6 5.6 0 0 1-1.3.529q-.715.195-1.69.195zM102.501 45.34q0 .684-.04 1.241-.039.557-.078.91h.137q.333-.549.821-.89a3.7 3.7 0 0 1 1.085-.518 4.3 4.3 0 0 1 1.242-.177q1.192 0 2.052.411a2.87 2.87 0 0 1 1.32 1.261q.46.852.46 2.219v6.901h-2.484v-6.391q0-1.213-.469-1.809t-1.466-.597q-.978 0-1.544.431-.567.43-.802 1.232-.235.801-.235 1.974v5.161h-2.483V41.84h2.483zM74.737 56.698h-2.521V44.871H67.88v-2.13h11.19v2.13h-4.333zM133.584 51.38q0 1.31-.352 2.336-.353 1.028-1.007 1.74a4.16 4.16 0 0 1-1.603 1.075q-.95.362-2.122.362-1.095 0-2.013-.362a4.3 4.3 0 0 1-1.584-1.075q-.665-.712-1.046-1.74-.381-1.027-.381-2.336 0-1.778.616-2.991.615-1.213 1.75-1.848 1.133-.636 2.717-.635 1.485 0 2.61.635 1.125.636 1.769 1.848.645 1.213.645 2.991m-7.567 0q0 1.095.265 1.906.263.81.82 1.242.557.43 1.437.43t1.437-.43q.559-.43.811-1.242.255-.81.254-1.906 0-1.133-.263-1.916-.264-.782-.812-1.202-.547-.42-1.446-.42-1.31 0-1.906.928-.597.93-.597 2.61M150.201 51.38q0 1.31-.352 2.336-.353 1.028-1.007 1.74a4.16 4.16 0 0 1-1.603 1.075q-.95.362-2.121.362-1.096 0-2.014-.362a4.3 4.3 0 0 1-1.584-1.075q-.665-.712-1.046-1.74-.381-1.027-.381-2.336 0-1.778.616-2.991.615-1.213 1.75-1.848 1.133-.636 2.717-.635 1.485 0 2.61.635 1.125.636 1.769 1.848.645 1.213.646 2.991m-7.567 0q0 1.095.265 1.906.263.81.821 1.242.556.43 1.437.43.88 0 1.436-.43.558-.43.812-1.242.252-.81.253-1.906 0-1.133-.263-1.916-.264-.782-.812-1.202-.546-.42-1.446-.42-1.31 0-1.906.928-.597.93-.597 2.61M156.098 45.906q1.075 0 1.848.401.772.4 1.3 1.144h.097l.254-1.349h2.073v10.713q0 1.505-.557 2.522t-1.682 1.535q-1.124.518-2.863.518-1.194 0-2.161-.157a8.3 8.3 0 0 1-1.788-.488v-2.17q.84.39 1.788.605a9.7 9.7 0 0 0 2.14.216q1.272 0 1.955-.645.684-.645.685-1.8v-.312q0-.253.03-.655l.048-.674h-.078a3.5 3.5 0 0 1-1.251 1.163q-.763.42-1.857.42-1.917 0-3.03-1.427-1.116-1.426-1.115-4.046 0-2.6 1.124-4.057 1.124-1.456 3.04-1.457m.685 1.994q-.744 0-1.262.41-.518.411-.781 1.203-.264.791-.265 1.926 0 1.74.597 2.61.595.87 1.75.87.664 0 1.134-.186t.772-.567.45-.967q.146-.587.146-1.39v-.429q0-1.193-.264-1.965t-.821-1.143-1.456-.372M163.271 46.102h2.639l2.11 6.04a14 14 0 0 1 .46 1.506q.087.372.146.704h.078q.079-.45.266-1.046.184-.596.381-1.163l2.033-6.041h2.6l-4.418 11.749q-.43 1.114-.989 1.906a3.8 3.8 0 0 1-1.357 1.212q-.802.42-1.975.42-.489 0-.851-.048a7 7 0 0 1-.615-.108v-1.954q.214.037.517.078.303.038.637.039.603 0 1.025-.245.42-.244.713-.655.296-.411.49-.938l.352-.9zM138.078 56.697h-2.484V41.84h2.484z" class="cls-1"/></svg>